<?xml version="1.0" encoding="utf-8"?>
<!-- Generator: Adobe Illustrator 26.0.3, SVG Export Plug-In . SVG Version: 6.00 Build 0)  -->
<svg version="1.0" id="katman_1" xmlns="http://www.w3.org/2000/svg" xmlns:xlink="http://www.w3.org/1999/xlink" x="0px" y="0px"
	 viewBox="0 0 600 450" style="enable-background:new 0 0 600 450;" xml:space="preserve">
<style type="text/css">
	.st0{fill:#00639B;}
	.st1{fill:#41C0F0;}
</style>
<g>
	<path class="st0" d="M349,264.2h45.4v-10h-30.1c4.1-16.5,29.4-20.1,29.4-38.6c0-10-6.8-17.2-20.9-17.2c-9,0-16.5,2.7-21.8,5.3
		l3.2,9.2c4.9-2.2,10.2-4.4,16.7-4.4c5.3,0,10.2,2.2,10.2,8.3C381.3,230.4,351.7,231.4,349,264.2z M485.2,250.3
		c-13.8,0-25.2-11.4-25.2-25.2c0-13.8,11.4-25.2,25.2-25.2s25.2,11.4,25.2,25.2C510.4,238.9,499,250.3,485.2,250.3z M485.2,204.4
		c-11.4,0-20.6,9.2-20.6,20.6s9.2,20.6,20.6,20.6c11.4,0,20.6-9.2,20.6-20.6C505.8,213.7,496.6,204.4,485.2,204.4z"/>
	<path class="st0" d="M499.5,225.1h-12.6v-12.6h-3.4v16h16L499.5,225.1L499.5,225.1z"/>
	<path class="st1" d="M89.8,189.4h21.8c16,0,23.3,9.2,23.3,18.9c0,6.6-3.2,12.4-9,15.5v0.2c8.7,2.2,14.1,9.2,14.1,18
		c0,11.7-8.7,22.1-26.2,22.1h-24V189.4z M110,220.7c7.5,0,11.7-4.1,11.7-10c0-5.6-3.6-10-11.7-10h-6.3v19.9
		C103.6,220.7,110,220.7,110,220.7z M112.1,253c9,0,14.1-3.4,14.1-10.9c0-6.3-4.9-10.2-12.4-10.2h-10.2V253H112.1z M150.2,193.8
		c0-4.6,3.6-8.3,8.3-8.3s8.5,3.4,8.5,8.3c0,4.4-3.6,8-8.5,8C153.6,201.8,150.2,198.4,150.2,193.8z M151.7,210.5h13.6v53.6h-13.6
		V210.5z M183.5,251v-29.9h-9.7v-10.7h9.7v-12.4l13.6-3.9v16.3h16.3l-3.4,10.7h-12.9v26.5c0,5.1,1.7,6.8,5.3,6.8
		c3.2,0,6.1-1.2,8.3-2.7l4.1,9.2c-3.9,2.7-10.4,4.1-15.8,4.1C189.3,265.4,183.5,260,183.5,251z M222.1,210.5h11.4l1.5,6.1
		c4.9-4.9,9.2-7.3,14.8-7.3c2.4,0,5.3,0.7,7.5,2.2l-4.9,11.4c-2.4-1.5-4.6-1.7-6.1-1.7c-3.6,0-6.6,1.5-10.9,5.3v37.9h-13.6v-53.9
		C221.8,210.5,222.1,210.5,222.1,210.5z M262.6,193.8c0-4.6,3.6-8.3,8.3-8.3s8.3,3.6,8.3,8.3c0,4.4-3.6,8-8.5,8
		S262.6,198.4,262.6,193.8z M264.1,210.5h13.6v53.6h-13.6C264.1,264.2,264.1,210.5,264.1,210.5z M305.1,237.2l-19.4-26.7h14.1
		l12.6,17.5l12.9-17.5h14.1l-19.7,26.7l19.9,26.9h-14.1l-12.9-18l-13.1,18h-14.1C285.4,264.2,305.1,237.2,305.1,237.2z"/>
	<path class="st0" d="M436.6,238.7v-40.3h-8.5l-32.3,42v8H425v16h11.7v-16h9.7v-9.7C446.4,238.7,436.6,238.7,436.6,238.7z
		 M425,229.2v9.2h-7.8c-2.4,0-6.8,0.2-8.3,0.2l16.5-22.3C425.5,218.3,425,224.1,425,229.2L425,229.2z"/>
</g>
</svg>
