<?xml version="1.0" encoding="UTF-8"?>
<svg id="Camada_1" data-name="Camada 1" xmlns="http://www.w3.org/2000/svg" viewBox="0 0 209.65 442.96">
  <defs>
    <style>
      .cls-1 {
        fill: none;
        stroke: #c100c9;
        stroke-miterlimit: 10;
        stroke-width: 12px;
      }
    </style>
  </defs>
  <path class="cls-1" d="m139.94,207.44c.76-.82,2.73-2.1,3.83-2.29.62-.11,1.93.77,2.48.47.87-.47,1.45-2.66,1.51-3.64.08-1.29-1.7-3.73-1.4-4.99.45-1.86,4.08-4.08,5.19-5.64.5-.71,1.61-2.19,1.65-3.05.02-.52-.46-1.57-.86-1.91-.52-.45-1.95-.84-2.62-.76-1.01.12-2.56,2.29-3.54,2.01-2.91-.85-5.2-7.72-5.69-10.72-.45-2.7,1.74-10.81,1.74-10.81,0,0,4.46-11.33,6.18-15,1.53-3.27,4.96-9.65,6.74-12.8,1.88-3.33,5.8-9.89,7.91-13.07,1.02-1.53,3.12-4.55,4.31-5.95,2.31-2.72,7.36-7.8,10.07-10.12,1.39-1.19,4.19-3.68,5.91-4.32.69-.26,2.26.05,2.93-.26s1.7-1.4,2.07-2.02c.99-1.66,2.26-5.51,2.14-7.44,0,0-1.3-9.28-.29-12.15,1.51-4.29,9.58-9.9,11.73-13.91.51-.96,2.34-3.37,1.51-4.08-1.84-1.57-7.26-.3-9.65-.7-3.91-.66-11.88-2.14-15.3-4.14-2.79-1.63-6.39-7.35-7.94-10.18-1.13-2.08-2.64-6.64-3.11-8.96-.28-1.4-.04-4.32-.37-5.71-.08-.35-.41-1-.57-1.32-.42-.84-1.23-2.56-1.86-3.24-.18-.19-.61-.54-.87-.6-.37-.08-1.11.38-1.47.28-.52-.15-1.26-1.05-1.59-1.48-.41-.53-1.07-1.72-1.29-2.36-.49-1.44-1.43-4.57-.95-6.01.1-.29.75-.59.89-.87,1.1-2.25,2.08-7.62,1.14-9.94-.54-1.35-3.07-3.38-4.49-3.71-.59-.14-1.83.25-2.35.56-.29.17-.76.7-.89,1.01-.43,1.01-.03,3.33-.35,4.39-.13.44-.52,1.34-.9,1.6-.71.47-2.53.5-3.37.4-1.47-.18-4.06-2.29-5.53-2.12-.31.04-.82.48-1.03.72-.94,1.05-2.34,3.58-2.69,4.94-.05.18-.08.56,0,.73.19.45,1.15.94,1.45,1.33.61.79,1.64,2.56,1.86,3.53l-.06,14.16c-.4.72-1.82,1.71-2.51,2.16-2.02,1.34-6.43,3.4-8.69,4.29-1.93.76-5.89,2.06-7.93,2.39-5.02.82-15.55-1.06-20.35.63-.79.28-2.25,1.29-2.66,2.02s-.06,2.56-.33,3.36c-.2.61-.93,1.69-1.34,2.18-.29.34-.95.94-1.33,1.16-.6.34-1.95.79-2.64.85-3.23.28-9.68-1.09-12.86-1.76-1.6-.34-4.76-1.2-6.27-1.83-2.07-.86-5.67-3.82-7.85-4.34-.68-.16-2.14-.16-2.78.11-.33.14-.86.7-1.04,1.01-1.06,1.86-1.3,6.3-2,8.32-.26.76-.87,2.27-1.35,2.91-.44.58-1.56,1.57-2.22,1.88-1.38.65-4.79.19-6.01,1.1-1.12.83-2.79,3.58-2.55,4.95.09.48,1,1.12,1.45,1.33.23.11.76.17,1.02.16,1.98-.11,5.76-2.73,7.63-2.1,1.46.49,3.06,3.5,3.75,4.87.36.72.81,2.28.84,3.08.02.44-.3,1.31-.31,1.75-.02.59.43,1.78.26,2.34,0,0-17.39,18.23-17.87,26.12-.01.24.63.49.87.45.36-.05.68-.94,1.04-1.01.5-.1,1.39.7,1.89.75.66.08,1.98-.52,2.64-.41.85.15,2.36,1.12,3.05,1.65.91.69,2.7,2.22,3.18,3.26s.19,3.31.39,4.39.69,3.41,1.26,4.4c.65,1.12,2.86,2.65,3.61,3.7s1.91,3.23,2.29,4.42c.22.71.57,2.21.4,2.93-.21.9-1.21,2.76-2.09,3.05-.11.04-.32-.14-.44-.15-.33-.04-.99.07-1.32.13-.38.07-1.14.23-1.47.42-1.59.91-5.11,3.23-5.33,5.06-.08.65,1.17,1.61,1.44,2.21.33.73.93,2.29.84,3.08-.15,1.35-1.65,3.78-2.54,4.8-.45.51-1.85,1.01-2.21,1.58-.22.34-.39,1.2-.31,1.61s.54,1.1.86,1.33c.54.38,1.93.54,2.48.91.97.64,2.23,2.72,3.18,3.4.29.21.95.54,1.31.6,1.42.23,4.29-.88,5.71-.66,1.26.2,3.83,1.13,4.66,2.1.35.41.84,1.6.56,2.05-.25.42-1.62.02-1.91.42-.22.3.19,1.1.13,1.46-.05.27-.31.78-.45,1.02-.83,1.35-2.84,3.85-4.01,4.93-.33.3-1.17.68-1.48,1.01-.36.4-.66,1.52-1.05,1.89-.24.22-.85.52-1.18.57-.58.09-1.77-.49-2.34-.32-.37.11-1.13.63-1.18,1.01-.09.65.96,1.76,1.44,2.21.64.61,2.39,1.21,3.05,1.79.49.43,1.35,1.46,1.58,2.07.27.69.35,2.2.26,2.93-.07.57-.4,1.73-.76,2.19-.33.42-1.25,1.21-1.77,1.15-.31-.03-.57-.79-.87-.89-.57-.18-1.75.4-2.35.41-.66.02-2.1.07-2.63-.32-.29-.22-.26-1.15-.57-1.32-.42-.24-1.43.32-1.91.27-1.74-.19-4.89-2.94-6.56-2.42-.55.17-.87,1.55-1.34,1.89-.37.27-1.37.32-1.76.56-.9.56-2.34,2.18-2.96,3.04-.43.6-1.12,1.92-1.35,2.62-.3.91-.19,2.94-.63,3.8-.12.23-.52.59-.74.72-2.28,1.37-7.67,2.23-10.14,3.24-.88.36-2.65,1.12-3.39,1.72-.51.41-1.4,1.42-1.63,2.03-.27.68-.35,2.21-.18,2.93.25,1.04,1.47,2.86,2.15,3.68.43.52,1.4,1.52,2.03,1.78.68.28,2.24-.09,2.92.18,1.5.6,4.18,2.73,4.93,4.16.63,1.21.89,4.11.52,5.42-.13.48-1.2,1.1-1.19,1.6,0,.29.48.73.72.89.38.25,1.36.23,1.75.46.78.47,1.55,2.65,2.46,2.66,1.32.02,2.79-2.8,3.7-3.76.34-.36.87-1.27,1.33-1.45,1.2-.46,3.95-.04,5.12.5,1.01.47,2.69,2.11,3.18,3.11.63,1.29.39,4.3.66,5.71.5,2.58,2.8,10.13,2.8,10.13l-.47,2.48-.17,1.61s1.58,4.68,1.68,6.31c.09,1.47-.2,4.5-.8,5.84-.35.78-1.37,2.54-2.23,2.61-.52.04-1.12-1.12-1.59-1.34-1.48-.68-5.15-.09-6.43-1.1-.28-.22-.3-1.08-.57-1.32-.2-.18-.79-.17-1.02-.3-.18-.11-.4-.49-.58-.59-.75-.44-2.49-.98-3.35-.92-2.63.18-7.6,2.55-9.71,4.13-1.12.84-2.99,3.06-3.56,4.35-.21.47-.15,1.56-.32,2.05-.55,1.64-2.42,4.61-3.29,6.11-.28.48-.92,1.4-1.19,1.89-.79,1.41-2.04,4.42-2.85,5.82-.71,1.22-2.51,3.69-2.4,5.09.04.58,1.16,1.36,1.29,1.92.08.32-.02,1.01-.16,1.31-.25.54-1.64,1.14-1.63,1.74.05,5.43,13.45,10.4,15.18,15.55.04.11-.07.35-.15.44-.11.12-.46.18-.59.29-.14.12-.39.41-.45.58-.19.55.25,1.82-.03,2.34-.44.83-2.62,1.34-3.1,2.16-5.42,9.29-4.03,42.83-4.03,42.83l-.9,2.18s-7.05,5.71-9.74,7.05c-1.48.74-4.9,1.12-6.32,1.97-.31.19-.91.67-1.04,1.01-.11.31-.1,1.09.13,1.32l5.96,3.44c.24,1-.11,3.09-.34,4.09-.14.61-.82,1.71-.91,2.33-1.74,12.46,6.18,37.61,4.67,50.1-.24,1.95-2.33,5.48-2.58,7.43-.05.4-.13,1.3.13,1.61s1.2.55,1.6.46c.81-.18,1.72-1.92,2.51-2.17l4.49,3.57c.31.4,1.39.84,1.89.75,1.12-.2,2.45-2.4,3.4-3.03,1.19-.78,4-1.59,5.15-2.43.52-.38,1.42-1.34,1.78-1.88,6.48-9.74,10.82-34.38,18.95-42.79.45-.47,1.78-.82,2.35-1.14.46-.26,1.29-.93,1.77-1.15,1.49-.68,6.31-1.83,6.31-1.83,0,0,3.13.51,4.09.93.36.16,1.2.51,1.31.89.15.54-.78,1.49-.9,2.04-.18.82-.03,2.52-.04,3.37,0,.26-.1.78-.01,1.02.45,1.27,2.18,3.71,3.46,4.14.57.19,1.77-.72,2.35-.56.94.27,1.81,2.52,2.75,2.81,1,.31,3.12-.47,4.11-.83.28-.1.81-.37,1.03-.57.54-.5,1.04-2.03,1.64-2.47s2.29-.44,2.94-.84c.37-.23,1.01-.9,1.19-1.3.22-.5-.18-1.77.17-2.19s1.61-.28,2.06-.56c.24-.15.66-.6.74-.87.07-.25-.03-.79-.13-1.03-.34-.73-1.79-1.66-2.17-2.37-.14-.27-.09-.94-.28-1.17-.37-.47-1.81-.89-1.88-1.49-.44-3.65,8.09-8.05,9.07-11.6.07-.25-.17-.77-.13-1.03.08-.52,1-1.38.9-1.89-.09-.48-.98-1.18-1.45-1.33-.31-.11-.99.19-1.32.13-1-.18-2.89-1.11-3.64-1.8-.98-.9-1.55-3.94-2.72-4.57-.58-.31-2.01-.09-2.64.11-.75.24-2.65,1.72-2.65,1.72l-1.9-.46s-3.25-4.31-3.44-6.04c-.07-.64.6-1.85.76-2.48.05-.18.13-.54.16-.73.02-.15,0-.44,0-.58,0-.07.05-.23,0-.29-.07-.09-.32-.16-.44-.15-.08,0-.23.1-.29.14-.13.09-.33.33-.44.43-.07.07-.24.2-.3.29-.11.16-.23.54-.3.73-.08.22-.14.71-.3.88-.14.14-.54.27-.73.28-.15,0-.44-.1-.58-.15-.19-.06-.55-.21-.73-.3-.23-.13-.69-.4-.87-.6-.54-.59-1.35-2.03-1.58-2.8-.32-1.11-.21-4.62-.21-4.62l1.31-8.04,1.08-5.41,3.15-6.22-.43-5.21,5.69-10.76s3.73-4.29,5.19-5.5c.88-.72,2.98-1.69,3.83-2.44,1.15-1.01,3.29-3.29,3.93-4.68,1.44-3.14,1.51-10.26,2.23-13.64.89-4.18,2.67-12.6,4.36-16.52.81-1.88,3.18-5.27,4.33-6.97,1.48-2.2,4.59-6.49,6.25-8.56l29.06-43.55Z"/>
</svg>